<svg xmlns="http://www.w3.org/2000/svg" xmlns:xlink="http://www.w3.org/1999/xlink" width="60" zoomAndPan="magnify" viewBox="0 0 45 44.999999" height="60" preserveAspectRatio="xMidYMid meet" version="1.0"><path fill="#cae5df" d="M 45 35.691406 L 45 41.898438 C 45 43.613281 43.613281 45 41.898438 45 L 3.101562 45 C 1.386719 45 0 43.613281 0 41.898438 L 0 35.691406 L 0.777344 34.914062 L 44.222656 34.914062 L 45 35.691406 " fill-opacity="1" fill-rule="nonzero"/><path fill="#263064" d="M 45 15.515625 L 45 35.691406 L 0 35.691406 L 0 15.515625 C 0 13.800781 1.386719 12.414062 3.101562 12.414062 L 41.898438 12.414062 C 43.613281 12.414062 45 13.800781 45 15.515625 " fill-opacity="1" fill-rule="nonzero"/><path fill="#384688" d="M 29.484375 7.402344 L 29.484375 12.414062 C 29.484375 12.414062 28.707031 13.964844 22.5 13.964844 C 16.292969 13.964844 15.515625 12.414062 15.515625 12.414062 L 15.515625 7.402344 L 29.484375 7.402344 " fill-opacity="1" fill-rule="nonzero"/><path fill="#263064" d="M 22.277344 9.28125 L 8.339844 5.40625 C 7.566406 5.191406 7.566406 4.117188 8.339844 3.902344 L 22.277344 0.03125 C 22.425781 -0.0078125 22.574219 -0.0078125 22.722656 0.03125 L 36.660156 3.902344 C 37.433594 4.117188 37.433594 5.191406 36.660156 5.40625 L 22.722656 9.28125 C 22.574219 9.320312 22.425781 9.320312 22.277344 9.28125 " fill-opacity="1" fill-rule="nonzero"/><path fill="#9ec5bf" d="M 40.34375 41.121094 L 10.863281 41.121094 C 10.433594 41.121094 10.085938 40.773438 10.085938 40.34375 C 10.085938 39.917969 10.433594 39.570312 10.863281 39.570312 L 40.34375 39.570312 C 40.773438 39.570312 41.121094 39.917969 41.121094 40.34375 C 41.121094 40.773438 40.773438 41.121094 40.34375 41.121094 " fill-opacity="1" fill-rule="nonzero"/><path fill="#76ce96" d="M 27.929688 30.257812 C 27.730469 30.257812 27.535156 30.183594 27.382812 30.03125 C 27.078125 29.726562 27.078125 29.238281 27.382812 28.933594 L 32.265625 24.050781 L 27.382812 19.167969 C 27.078125 18.867188 27.078125 18.375 27.382812 18.070312 C 27.683594 17.769531 28.175781 17.769531 28.480469 18.070312 L 33.910156 23.503906 C 34.214844 23.804688 34.214844 24.296875 33.910156 24.601562 L 28.480469 30.03125 C 28.328125 30.183594 28.132812 30.257812 27.929688 30.257812 " fill-opacity="1" fill-rule="nonzero"/><path fill="#76ce96" d="M 17.070312 30.257812 C 16.867188 30.257812 16.671875 30.183594 16.519531 30.03125 L 11.089844 24.601562 C 10.785156 24.296875 10.785156 23.804688 11.089844 23.503906 L 16.519531 18.070312 C 16.824219 17.769531 17.3125 17.769531 17.617188 18.070312 C 17.921875 18.375 17.921875 18.867188 17.617188 19.167969 L 12.734375 24.050781 L 17.617188 28.933594 C 17.921875 29.238281 17.921875 29.726562 17.617188 30.03125 C 17.464844 30.183594 17.269531 30.257812 17.070312 30.257812 " fill-opacity="1" fill-rule="nonzero"/><path fill="#76ce96" d="M 20.171875 31.035156 C 20.082031 31.035156 19.992188 31.019531 19.898438 30.984375 C 19.5 30.835938 19.296875 30.386719 19.445312 29.984375 L 24.101562 17.570312 C 24.25 17.171875 24.699219 16.96875 25.101562 17.117188 C 25.5 17.269531 25.703125 17.71875 25.554688 18.117188 L 20.898438 30.53125 C 20.78125 30.84375 20.488281 31.035156 20.171875 31.035156 " fill-opacity="1" fill-rule="nonzero"/><path fill="#384688" d="M 20.949219 41.898438 L 19.398438 41.898438 C 18.96875 41.898438 18.621094 41.546875 18.621094 41.121094 L 18.621094 39.570312 C 18.621094 39.140625 18.96875 38.792969 19.398438 38.792969 L 20.949219 38.792969 C 21.375 38.792969 21.722656 39.140625 21.722656 39.570312 L 21.722656 41.121094 C 21.722656 41.546875 21.375 41.898438 20.949219 41.898438 " fill-opacity="1" fill-rule="nonzero"/><path fill="#384688" d="M 4.65625 41.210938 L 4.65625 39.476562 C 4.65625 38.933594 5.363281 38.605469 5.890625 38.910156 L 7.402344 39.777344 C 7.875 40.046875 7.875 40.640625 7.402344 40.910156 L 5.890625 41.78125 C 5.363281 42.085938 4.65625 41.757812 4.65625 41.210938 " fill-opacity="1" fill-rule="nonzero"/></svg>