<svg xmlns="http://www.w3.org/2000/svg" xmlns:xlink="http://www.w3.org/1999/xlink" width="60" zoomAndPan="magnify" viewBox="0 0 45 44.999999" height="60" preserveAspectRatio="xMidYMid meet" version="1.0"><defs><clipPath id="8201ee358e"><path d="M 1 1.152344 L 44 1.152344 L 44 43.902344 L 1 43.902344 Z M 1 1.152344 " clip-rule="nonzero"/></clipPath><clipPath id="329edbcad8"><path d="M 0 1.152344 L 15 1.152344 L 15 15 L 0 15 Z M 0 1.152344 " clip-rule="nonzero"/></clipPath><clipPath id="9535756688"><path d="M 30 1.152344 L 45 1.152344 L 45 15 L 30 15 Z M 30 1.152344 " clip-rule="nonzero"/></clipPath><clipPath id="7eb87553cd"><path d="M 30 30 L 45 30 L 45 43.902344 L 30 43.902344 Z M 30 30 " clip-rule="nonzero"/></clipPath><clipPath id="25ac00a133"><path d="M 0 30 L 15 30 L 15 43.902344 L 0 43.902344 Z M 0 30 " clip-rule="nonzero"/></clipPath></defs><path fill="#efc7a4" d="M 19.546875 14.660156 C 19.546875 16.386719 20.945312 17.785156 22.667969 17.785156 C 24.390625 17.785156 25.785156 16.386719 25.785156 14.660156 C 25.785156 12.9375 24.390625 11.539062 22.667969 11.539062 C 20.945312 11.539062 19.546875 12.9375 19.546875 14.660156 Z M 19.546875 14.660156 " fill-opacity="1" fill-rule="evenodd"/><path fill="#66d4f1" d="M 29.414062 26.339844 C 29.414062 30.070312 15.921875 30.070312 15.921875 26.339844 C 15.921875 22.605469 18.941406 19.582031 22.667969 19.582031 C 26.394531 19.582031 29.414062 22.605469 29.414062 26.339844 Z M 29.414062 26.339844 " fill-opacity="1" fill-rule="evenodd"/><g clip-path="url(#8201ee358e)"><path fill="#c7e0ec" d="M 34.027344 38.1875 C 34.324219 37.976562 34.734375 38.046875 34.945312 38.339844 C 35.15625 38.636719 35.085938 39.046875 34.792969 39.257812 C 33.058594 40.5 31.121094 41.488281 29.035156 42.15625 C 27.023438 42.800781 24.882812 43.152344 22.667969 43.152344 C 19.886719 43.152344 17.234375 42.605469 14.808594 41.613281 C 12.289062 40.585938 10.015625 39.078125 8.101562 37.207031 C 7.84375 36.953125 7.835938 36.539062 8.089844 36.277344 C 8.339844 36.019531 8.753906 36.011719 9.011719 36.265625 C 10.808594 38.023438 12.9375 39.433594 15.300781 40.398438 C 17.570312 41.324219 20.058594 41.835938 22.667969 41.835938 C 24.753906 41.835938 26.757812 41.511719 28.636719 40.910156 C 30.582031 40.285156 32.398438 39.359375 34.027344 38.1875 Z M 38.550781 10.90625 C 38.34375 10.609375 38.410156 10.199219 38.703125 9.988281 C 39 9.777344 39.40625 9.84375 39.617188 10.140625 C 40.863281 11.875 41.847656 13.816406 42.515625 15.902344 C 43.160156 17.917969 43.507812 20.0625 43.507812 22.28125 C 43.507812 25.132812 42.933594 27.855469 41.898438 30.332031 C 40.824219 32.90625 39.246094 35.21875 37.289062 37.148438 C 37.03125 37.402344 36.617188 37.398438 36.363281 37.140625 C 36.109375 36.882812 36.113281 36.46875 36.371094 36.214844 C 38.203125 34.410156 39.679688 32.242188 40.6875 29.832031 C 41.660156 27.507812 42.195312 24.960938 42.195312 22.28125 C 42.195312 20.191406 41.871094 18.183594 41.269531 16.304688 C 40.644531 14.355469 39.722656 12.539062 38.550781 10.90625 Z M 11.304688 6.375 C 11.011719 6.585938 10.601562 6.515625 10.390625 6.222656 C 10.179688 5.929688 10.246094 5.515625 10.542969 5.304688 C 12.277344 4.0625 14.214844 3.074219 16.296875 2.40625 C 18.308594 1.761719 20.449219 1.414062 22.667969 1.414062 C 25.523438 1.414062 28.25 1.992188 30.738281 3.039062 C 33.316406 4.125 35.632812 5.714844 37.558594 7.683594 C 37.8125 7.941406 37.808594 8.355469 37.550781 8.609375 C 37.292969 8.863281 36.878906 8.859375 36.625 8.601562 C 34.816406 6.753906 32.648438 5.261719 30.230469 4.246094 C 27.910156 3.265625 25.355469 2.726562 22.667969 2.726562 C 20.578125 2.726562 18.574219 3.050781 16.695312 3.65625 C 14.75 4.277344 12.9375 5.203125 11.304688 6.375 Z M 6.78125 33.660156 C 6.992188 33.953125 6.925781 34.363281 6.628906 34.574219 C 6.335938 34.785156 5.925781 34.71875 5.714844 34.421875 C 4.472656 32.6875 3.488281 30.746094 2.820312 28.660156 C 2.175781 26.644531 1.824219 24.5 1.824219 22.28125 C 1.824219 19.429688 2.398438 16.710938 3.433594 14.230469 C 4.511719 11.65625 6.089844 9.34375 8.042969 7.414062 C 8.300781 7.160156 8.714844 7.164062 8.96875 7.421875 C 9.222656 7.679688 9.21875 8.09375 8.960938 8.347656 C 7.128906 10.15625 5.652344 12.320312 4.644531 14.734375 C 3.675781 17.054688 3.136719 19.605469 3.136719 22.28125 C 3.136719 24.371094 3.464844 26.378906 4.066406 28.261719 C 4.6875 30.207031 5.613281 32.023438 6.78125 33.660156 Z M 6.78125 33.660156 " fill-opacity="1" fill-rule="evenodd"/></g><g clip-path="url(#329edbcad8)"><path fill="#fdcd56" d="M 13.695312 1.148438 L 0.859375 1.148438 C 0.390625 1.148438 0.0078125 1.535156 0.0078125 2.003906 L 0.0078125 10.144531 C 0.0078125 10.613281 0.390625 10.996094 0.859375 10.996094 L 5.902344 10.996094 C 5.902344 10.996094 5.972656 14.351562 10.097656 14.867188 C 10.097656 14.867188 8.808594 13.417969 9.355469 10.996094 L 13.695312 10.996094 C 14.167969 10.996094 14.550781 10.613281 14.550781 10.144531 L 14.550781 2.003906 C 14.546875 1.535156 14.167969 1.148438 13.695312 1.148438 Z M 13.695312 1.148438 " fill-opacity="1" fill-rule="evenodd"/></g><path fill="#f4f6f8" d="M 4.148438 5.003906 C 3.789062 5.003906 3.492188 4.710938 3.492188 4.347656 C 3.492188 3.984375 3.789062 3.691406 4.148438 3.691406 L 10.40625 3.691406 C 10.765625 3.691406 11.0625 3.984375 11.0625 4.347656 C 11.0625 4.710938 10.765625 5.003906 10.40625 5.003906 Z M 4.148438 8.457031 C 3.789062 8.457031 3.492188 8.160156 3.492188 7.800781 C 3.492188 7.4375 3.789062 7.140625 4.148438 7.140625 L 10.40625 7.140625 C 10.765625 7.140625 11.0625 7.4375 11.0625 7.800781 C 11.0625 8.160156 10.765625 8.457031 10.40625 8.457031 Z M 4.148438 8.457031 " fill-opacity="1" fill-rule="evenodd"/><g clip-path="url(#9535756688)"><path fill="#c6ea94" d="M 31.304688 1.148438 L 44.140625 1.148438 C 44.609375 1.148438 44.992188 1.535156 44.992188 2.003906 L 44.992188 10.144531 C 44.992188 10.613281 44.609375 10.996094 44.140625 10.996094 L 39.097656 10.996094 C 39.097656 10.996094 39.027344 14.351562 34.902344 14.867188 C 34.902344 14.867188 36.191406 13.417969 35.644531 10.996094 L 31.304688 10.996094 C 30.832031 10.996094 30.453125 10.613281 30.453125 10.144531 L 30.453125 2.003906 C 30.453125 1.535156 30.832031 1.148438 31.304688 1.148438 Z M 31.304688 1.148438 " fill-opacity="1" fill-rule="evenodd"/></g><path fill="#f4f6f8" d="M 40.851562 3.691406 C 41.210938 3.691406 41.507812 3.984375 41.507812 4.347656 C 41.507812 4.710938 41.210938 5.003906 40.851562 5.003906 L 34.59375 5.003906 C 34.234375 5.003906 33.9375 4.710938 33.9375 4.347656 C 33.9375 3.984375 34.234375 3.691406 34.59375 3.691406 Z M 40.851562 7.140625 C 41.210938 7.140625 41.507812 7.4375 41.507812 7.800781 C 41.507812 8.160156 41.210938 8.457031 40.851562 8.457031 L 34.59375 8.457031 C 34.234375 8.457031 33.9375 8.160156 33.9375 7.800781 C 33.9375 7.4375 34.234375 7.140625 34.59375 7.140625 Z M 40.851562 7.140625 " fill-opacity="1" fill-rule="evenodd"/><g clip-path="url(#7eb87553cd)"><path fill="#fdcd56" d="M 31.304688 30.179688 L 44.140625 30.179688 C 44.609375 30.179688 44.992188 30.5625 44.992188 31.03125 L 44.992188 39.171875 C 44.992188 39.644531 44.609375 40.027344 44.140625 40.027344 L 39.097656 40.027344 C 39.097656 40.027344 39.027344 43.378906 34.902344 43.898438 C 34.902344 43.898438 36.191406 42.445312 35.644531 40.027344 L 31.304688 40.027344 C 30.832031 40.027344 30.453125 39.644531 30.453125 39.171875 L 30.453125 31.03125 C 30.453125 30.5625 30.832031 30.179688 31.304688 30.179688 Z M 31.304688 30.179688 " fill-opacity="1" fill-rule="evenodd"/></g><path fill="#f4f6f8" d="M 40.851562 32.722656 C 41.210938 32.722656 41.507812 33.015625 41.507812 33.378906 C 41.507812 33.742188 41.210938 34.035156 40.851562 34.035156 L 34.59375 34.035156 C 34.234375 34.035156 33.9375 33.742188 33.9375 33.378906 C 33.9375 33.015625 34.234375 32.722656 34.59375 32.722656 Z M 40.851562 36.171875 C 41.210938 36.171875 41.507812 36.464844 41.507812 36.828125 C 41.507812 37.191406 41.210938 37.484375 40.851562 37.484375 L 34.59375 37.484375 C 34.234375 37.484375 33.9375 37.191406 33.9375 36.828125 C 33.9375 36.464844 34.234375 36.171875 34.59375 36.171875 Z M 40.851562 36.171875 " fill-opacity="1" fill-rule="evenodd"/><g clip-path="url(#25ac00a133)"><path fill="#c6ea94" d="M 13.695312 30.179688 L 0.859375 30.179688 C 0.390625 30.179688 0.0078125 30.5625 0.0078125 31.03125 L 0.0078125 39.171875 C 0.0078125 39.644531 0.390625 40.027344 0.859375 40.027344 L 5.902344 40.027344 C 5.902344 40.027344 5.972656 43.378906 10.097656 43.898438 C 10.097656 43.898438 8.808594 42.445312 9.355469 40.027344 L 13.695312 40.027344 C 14.167969 40.027344 14.550781 39.644531 14.550781 39.171875 L 14.550781 31.03125 C 14.546875 30.5625 14.167969 30.179688 13.695312 30.179688 Z M 13.695312 30.179688 " fill-opacity="1" fill-rule="evenodd"/></g><path fill="#f4f6f8" d="M 4.148438 34.035156 C 3.789062 34.035156 3.492188 33.742188 3.492188 33.378906 C 3.492188 33.015625 3.789062 32.722656 4.148438 32.722656 L 10.40625 32.722656 C 10.765625 32.722656 11.0625 33.015625 11.0625 33.378906 C 11.0625 33.742188 10.765625 34.035156 10.40625 34.035156 Z M 4.148438 37.484375 C 3.789062 37.484375 3.492188 37.191406 3.492188 36.828125 C 3.492188 36.464844 3.789062 36.171875 4.148438 36.171875 L 10.40625 36.171875 C 10.765625 36.171875 11.0625 36.464844 11.0625 36.828125 C 11.0625 37.191406 10.765625 37.484375 10.40625 37.484375 Z M 4.148438 37.484375 " fill-opacity="1" fill-rule="evenodd"/></svg>