<svg xmlns="http://www.w3.org/2000/svg" xmlns:xlink="http://www.w3.org/1999/xlink" width="60" zoomAndPan="magnify" viewBox="0 0 45 44.999999" height="60" preserveAspectRatio="xMidYMid meet" version="1.0"><defs><filter x="0%" y="0%" width="100%" height="100%" id="f7fc7201c4"><feColorMatrix values="0 0 0 0 1 0 0 0 0 1 0 0 0 0 1 0 0 0 1 0" color-interpolation-filters="sRGB"/></filter><clipPath id="1da9d7464b"><path d="M 26 21 L 43.792969 21 L 43.792969 30 L 26 30 Z M 26 21 " clip-rule="nonzero"/></clipPath><mask id="8b734fd737"><g filter="url(#f7fc7201c4)"><rect x="-4.5" width="54" fill="#000000" y="-4.5" height="53.999999" fill-opacity="0.9"/></g></mask><clipPath id="de59113b2c"><path d="M 0.398438 0.121094 L 17.792969 0.121094 L 17.792969 8 L 0.398438 8 Z M 0.398438 0.121094 " clip-rule="nonzero"/></clipPath><clipPath id="2dabe028c1"><rect x="0" width="18" y="0" height="9"/></clipPath><mask id="7364a3a311"><g filter="url(#f7fc7201c4)"><rect x="-4.5" width="54" fill="#000000" y="-4.5" height="53.999999" fill-opacity="0.3"/></g></mask><clipPath id="b7eea3efde"><path d="M 1 0.441406 L 8.800781 0.441406 L 8.800781 17.960938 L 1 17.960938 Z M 1 0.441406 " clip-rule="nonzero"/></clipPath><clipPath id="cedb581027"><rect x="0" width="9" y="0" height="18"/></clipPath><mask id="76206b8233"><g filter="url(#f7fc7201c4)"><rect x="-4.5" width="54" fill="#000000" y="-4.5" height="53.999999" fill-opacity="0.4"/></g></mask><clipPath id="8f89aa3c15"><path d="M 0.601562 0.28125 L 16.199219 0.28125 L 16.199219 12.761719 L 0.601562 12.761719 Z M 0.601562 0.28125 " clip-rule="nonzero"/></clipPath><clipPath id="15a428ffda"><rect x="0" width="17" y="0" height="13"/></clipPath><clipPath id="f9843d69ec"><path d="M 1.042969 13 L 19 13 L 19 22 L 1.042969 22 Z M 1.042969 13 " clip-rule="nonzero"/></clipPath><mask id="ee495f2598"><g filter="url(#f7fc7201c4)"><rect x="-4.5" width="54" fill="#000000" y="-4.5" height="53.999999" fill-opacity="0.5"/></g></mask><clipPath id="3c39e786c9"><path d="M 0.0429688 0.921875 L 17.71875 0.921875 L 17.71875 8.601562 L 0.0429688 8.601562 Z M 0.0429688 0.921875 " clip-rule="nonzero"/></clipPath><clipPath id="30c1a2b583"><rect x="0" width="18" y="0" height="9"/></clipPath><mask id="b57052d98b"><g filter="url(#f7fc7201c4)"><rect x="-4.5" width="54" fill="#000000" y="-4.5" height="53.999999" fill-opacity="0.6"/></g></mask><clipPath id="02190745b5"><path d="M 0.398438 0.398438 L 12.640625 0.398438 L 12.640625 16 L 0.398438 16 Z M 0.398438 0.398438 " clip-rule="nonzero"/></clipPath><clipPath id="cc4905381b"><rect x="0" width="13" y="0" height="17"/></clipPath><mask id="f21ec0f4c7"><g filter="url(#f7fc7201c4)"><rect x="-4.5" width="54" fill="#000000" y="-4.5" height="53.999999" fill-opacity="0.7"/></g></mask><clipPath id="bed57d6ed5"><path d="M 0.320312 0 L 8 0 L 8 17.519531 L 0.320312 17.519531 Z M 0.320312 0 " clip-rule="nonzero"/></clipPath><clipPath id="93bf8fdc7c"><rect x="0" width="9" y="0" height="18"/></clipPath><mask id="cc2e2c5c98"><g filter="url(#f7fc7201c4)"><rect x="-4.5" width="54" fill="#000000" y="-4.5" height="53.999999" fill-opacity="0.8"/></g></mask><clipPath id="ce3c801b57"><path d="M 0.921875 0.199219 L 16.519531 0.199219 L 16.519531 12.679688 L 0.921875 12.679688 Z M 0.921875 0.199219 " clip-rule="nonzero"/></clipPath><clipPath id="517c7d5e32"><rect x="0" width="17" y="0" height="13"/></clipPath></defs><g clip-path="url(#1da9d7464b)"><g mask="url(#8b734fd737)"><g transform="matrix(1, 0, 0, 1, 26, 21)"><g clip-path="url(#2dabe028c1)"><g clip-path="url(#de59113b2c)"><path fill="#d62b33" d="M 0.597656 1.242188 C 0.644531 1.023438 0.9375 0.859375 1.410156 0.707031 C 1.871094 0.554688 2.507812 0.417969 3.203125 0.414062 L 15.554688 0.414062 C 16.234375 0.414062 16.847656 0.820312 17.273438 1.546875 C 17.703125 2.308594 17.910156 3.433594 17.667969 4.617188 C 17.589844 5.011719 17.460938 5.390625 17.316406 5.734375 C 17.160156 6.074219 16.972656 6.386719 16.773438 6.65625 C 16.375 7.160156 15.925781 7.523438 15.453125 7.703125 C 14.988281 7.878906 14.523438 7.886719 14.105469 7.710938 L 2.695312 2.980469 C 2.050781 2.707031 1.523438 2.347656 1.144531 2.035156 C 1.050781 1.957031 0.96875 1.878906 0.898438 1.808594 C 0.828125 1.738281 0.761719 1.664062 0.714844 1.601562 C 0.671875 1.535156 0.636719 1.472656 0.613281 1.414062 C 0.589844 1.355469 0.59375 1.296875 0.601562 1.242188 Z M 0.597656 1.242188 " fill-opacity="1" fill-rule="nonzero"/></g></g></g></g></g><path fill="#d62b33" d="M 24.8125 24.898438 C 24.996094 24.769531 25.328125 24.871094 25.765625 25.089844 C 26.199219 25.316406 26.742188 25.664062 27.238281 26.15625 L 35.96875 34.890625 C 36.449219 35.367188 36.601562 36.09375 36.378906 36.90625 C 36.148438 37.753906 35.492188 38.683594 34.488281 39.355469 C 33.816406 39.804688 33.089844 40.074219 32.417969 40.160156 C 32.101562 40.199219 31.800781 40.203125 31.519531 40.171875 C 31.238281 40.136719 30.980469 40.070312 30.753906 39.96875 C 30.296875 39.769531 29.964844 39.441406 29.792969 39.019531 L 25.058594 27.613281 C 24.796875 26.972656 24.675781 26.328125 24.632812 25.851562 C 24.589844 25.355469 24.628906 25.023438 24.8125 24.898438 Z M 24.8125 24.898438 " fill-opacity="1" fill-rule="nonzero"/><g mask="url(#7364a3a311)"><g transform="matrix(1, 0, 0, 1, 14, 25)"><g clip-path="url(#cedb581027)"><g clip-path="url(#b7eea3efde)"><path fill="#d62b33" d="M 7.667969 0.519531 C 7.886719 0.566406 8.050781 0.855469 8.203125 1.332031 C 8.355469 1.792969 8.492188 2.425781 8.496094 3.125 L 8.496094 15.476562 C 8.496094 16.152344 8.089844 16.769531 7.363281 17.191406 C 6.605469 17.621094 5.480469 17.828125 4.292969 17.585938 C 3.898438 17.507812 3.519531 17.382812 3.175781 17.234375 C 2.835938 17.078125 2.523438 16.894531 2.253906 16.691406 C 1.75 16.296875 1.386719 15.847656 1.210938 15.375 C 1.03125 14.90625 1.023438 14.445312 1.199219 14.023438 L 5.929688 2.617188 C 6.203125 1.96875 6.5625 1.445312 6.875 1.066406 C 6.953125 0.972656 7.03125 0.890625 7.101562 0.820312 C 7.171875 0.75 7.246094 0.683594 7.308594 0.636719 C 7.375 0.589844 7.4375 0.558594 7.496094 0.535156 C 7.554688 0.511719 7.613281 0.511719 7.667969 0.519531 Z M 7.667969 0.519531 " fill-opacity="1" fill-rule="nonzero"/></g></g></g></g><g mask="url(#76206b8233)"><g transform="matrix(1, 0, 0, 1, 3, 23)"><g clip-path="url(#15a428ffda)"><g clip-path="url(#8f89aa3c15)"><path fill="#d62b33" d="M 16.011719 0.734375 C 16.140625 0.921875 16.039062 1.25 15.820312 1.6875 C 15.59375 2.121094 15.246094 2.664062 14.753906 3.160156 L 6.019531 11.890625 C 5.542969 12.371094 4.816406 12.523438 4.003906 12.300781 C 3.15625 12.070312 2.226562 11.414062 1.554688 10.414062 C 1.105469 9.738281 0.835938 9.011719 0.75 8.34375 C 0.710938 8.023438 0.707031 7.722656 0.738281 7.441406 C 0.773438 7.160156 0.839844 6.902344 0.941406 6.675781 C 1.140625 6.21875 1.46875 5.886719 1.890625 5.714844 L 13.296875 0.980469 C 13.9375 0.71875 14.582031 0.597656 15.058594 0.554688 C 15.554688 0.511719 15.886719 0.550781 16.011719 0.734375 Z M 16.011719 0.734375 " fill-opacity="1" fill-rule="nonzero"/></g></g></g></g><g clip-path="url(#f9843d69ec)"><g mask="url(#ee495f2598)"><g transform="matrix(1, 0, 0, 1, 1, 13)"><g clip-path="url(#30c1a2b583)"><g clip-path="url(#3c39e786c9)"><path fill="#d62b33" d="M 17.394531 7.589844 C 17.347656 7.804688 17.054688 7.972656 16.582031 8.125 C 16.121094 8.273438 15.484375 8.414062 14.789062 8.414062 L 2.4375 8.414062 C 1.757812 8.417969 1.144531 8.011719 0.71875 7.285156 C 0.289062 6.523438 0.0820312 5.398438 0.324219 4.214844 C 0.402344 3.816406 0.53125 3.441406 0.675781 3.097656 C 0.832031 2.753906 1.019531 2.445312 1.21875 2.175781 C 1.617188 1.667969 2.066406 1.304688 2.539062 1.128906 C 3.003906 0.949219 3.46875 0.945312 3.886719 1.117188 L 15.296875 5.851562 C 15.941406 6.121094 16.46875 6.484375 16.84375 6.796875 C 16.941406 6.875 17.023438 6.949219 17.09375 7.023438 C 17.164062 7.09375 17.230469 7.167969 17.277344 7.230469 C 17.320312 7.296875 17.355469 7.359375 17.378906 7.417969 C 17.402344 7.476562 17.398438 7.53125 17.390625 7.589844 Z M 17.394531 7.589844 " fill-opacity="1" fill-rule="nonzero"/></g></g></g></g></g><g mask="url(#b57052d98b)"><g transform="matrix(1, 0, 0, 1, 8, 2)"><g clip-path="url(#cc4905381b)"><g clip-path="url(#02190745b5)"><path fill="#d62b33" d="M 12.175781 15.929688 C 11.992188 16.058594 11.660156 15.960938 11.222656 15.738281 C 10.792969 15.515625 10.25 15.164062 9.753906 14.671875 L 1.019531 5.9375 C 0.539062 5.464844 0.386719 4.738281 0.609375 3.921875 C 0.839844 3.074219 1.496094 2.144531 2.496094 1.472656 C 3.171875 1.027344 3.898438 0.757812 4.570312 0.667969 C 4.886719 0.628906 5.1875 0.625 5.46875 0.65625 C 5.75 0.691406 6.007812 0.761719 6.234375 0.859375 C 6.691406 1.058594 7.023438 1.386719 7.195312 1.808594 L 11.929688 13.214844 C 12.191406 13.855469 12.3125 14.5 12.355469 14.976562 C 12.398438 15.472656 12.359375 15.804688 12.175781 15.929688 Z M 12.175781 15.929688 " fill-opacity="1" fill-rule="nonzero"/></g></g></g></g><g mask="url(#f21ec0f4c7)"><g transform="matrix(1, 0, 0, 1, 22, 0)"><g clip-path="url(#93bf8fdc7c)"><g clip-path="url(#bed57d6ed5)"><path fill="#d62b33" d="M 1.320312 17.3125 C 1.105469 17.269531 0.9375 16.976562 0.785156 16.503906 C 0.636719 16.042969 0.496094 15.40625 0.496094 14.707031 L 0.496094 2.355469 C 0.492188 1.679688 0.898438 1.0625 1.625 0.640625 C 2.386719 0.210938 3.511719 0.00390625 4.695312 0.246094 C 5.09375 0.324219 5.46875 0.449219 5.8125 0.597656 C 6.15625 0.753906 6.464844 0.9375 6.734375 1.140625 C 7.242188 1.539062 7.605469 1.984375 7.78125 2.457031 C 7.960938 2.925781 7.964844 3.386719 7.792969 3.808594 L 3.058594 15.214844 C 2.789062 15.863281 2.425781 16.390625 2.113281 16.765625 C 2.035156 16.859375 1.960938 16.941406 1.886719 17.011719 C 1.816406 17.082031 1.746094 17.152344 1.679688 17.195312 C 1.613281 17.242188 1.554688 17.273438 1.492188 17.300781 C 1.433594 17.320312 1.378906 17.320312 1.324219 17.3125 Z M 1.320312 17.3125 " fill-opacity="1" fill-rule="nonzero"/></g></g></g></g><g mask="url(#cc2e2c5c98)"><g transform="matrix(1, 0, 0, 1, 25, 7)"><g clip-path="url(#517c7d5e32)"><g clip-path="url(#ce3c801b57)"><path fill="#d62b33" d="M 0.980469 12.097656 C 0.851562 11.914062 0.949219 11.582031 1.171875 11.144531 C 1.394531 10.710938 1.746094 10.167969 2.238281 9.671875 L 10.96875 0.941406 C 11.445312 0.460938 12.171875 0.3125 12.984375 0.53125 C 13.832031 0.761719 14.761719 1.421875 15.433594 2.421875 C 15.882812 3.09375 16.152344 3.820312 16.238281 4.492188 C 16.277344 4.808594 16.285156 5.109375 16.253906 5.390625 C 16.214844 5.671875 16.148438 5.929688 16.046875 6.15625 C 15.851562 6.613281 15.523438 6.945312 15.101562 7.117188 L 3.691406 11.851562 C 3.050781 12.113281 2.40625 12.234375 1.929688 12.277344 C 1.433594 12.320312 1.101562 12.28125 0.976562 12.097656 Z M 0.980469 12.097656 " fill-opacity="1" fill-rule="nonzero"/></g></g></g></g></svg>