<svg xmlns="http://www.w3.org/2000/svg" xmlns:xlink="http://www.w3.org/1999/xlink" width="60" zoomAndPan="magnify" viewBox="0 0 45 44.999999" height="60" preserveAspectRatio="xMidYMid meet" version="1.0"><defs><clipPath id="4a89deae34"><path d="M 1 0 L 43.691406 0 L 43.691406 45 L 1 45 Z M 1 0 " clip-rule="nonzero"/></clipPath><clipPath id="92737ec07d"><path d="M 1 0 L 43.691406 0 L 43.691406 45 L 1 45 Z M 1 0 " clip-rule="nonzero"/></clipPath></defs><g clip-path="url(#4a89deae34)"><path fill="#8d5d39" d="M 39.890625 44.898438 C 39.875 44.898438 39.855469 44.894531 39.839844 44.882812 L 9.0625 26.785156 L 7.707031 25.980469 C 7.695312 25.972656 7.683594 25.960938 7.671875 25.9375 L 1.222656 6.585938 C 1.066406 6.113281 1.210938 5.605469 1.59375 5.292969 C 1.804688 5.117188 2.066406 5.023438 2.332031 5.023438 C 2.539062 5.023438 2.742188 5.082031 2.925781 5.1875 L 7.023438 7.601562 L 6.933594 6.707031 C 6.929688 6.667969 6.945312 6.632812 6.976562 6.609375 C 6.996094 6.601562 7.015625 6.59375 7.035156 6.59375 C 7.050781 6.59375 7.070312 6.597656 7.085938 6.609375 L 8.304688 7.324219 L 8.234375 5.386719 C 8.234375 5.347656 8.25 5.3125 8.285156 5.292969 C 8.300781 5.285156 8.316406 5.28125 8.335938 5.28125 C 8.355469 5.28125 8.371094 5.285156 8.386719 5.292969 L 9.878906 6.171875 L 9.949219 4.480469 C 9.953125 4.441406 9.972656 4.410156 10.003906 4.394531 C 10.019531 4.386719 10.035156 4.382812 10.050781 4.382812 C 10.070312 4.382812 10.089844 4.386719 10.105469 4.394531 L 10.636719 4.707031 L 11.269531 0.199219 C 11.273438 0.164062 11.296875 0.136719 11.328125 0.121094 C 11.339844 0.113281 11.355469 0.113281 11.371094 0.113281 C 11.390625 0.113281 11.40625 0.117188 11.421875 0.125 L 24.664062 7.914062 C 24.757812 7.972656 24.867188 8 24.976562 8 C 25.046875 8 25.113281 7.988281 25.175781 7.96875 C 25.347656 7.910156 25.484375 7.78125 25.554688 7.617188 L 26.144531 6.191406 C 26.230469 5.984375 26.402344 5.820312 26.617188 5.75 C 26.695312 5.722656 26.78125 5.710938 26.863281 5.710938 C 27.003906 5.710938 27.140625 5.746094 27.257812 5.816406 L 42.996094 15.074219 C 43.371094 15.292969 43.585938 15.71875 43.542969 16.15625 L 39.992188 44.808594 L 39.980469 44.847656 C 39.964844 44.859375 39.957031 44.867188 39.953125 44.875 L 39.933594 44.886719 C 39.914062 44.894531 39.902344 44.898438 39.890625 44.898438 Z M 39.890625 44.898438 " fill-opacity="1" fill-rule="nonzero"/><path fill="#fdc128" d="M 43.441406 16.144531 L 39.890625 44.796875 L 41.121094 20.164062 L 12.136719 3.121094 L 11.828125 5.527344 L 10.714844 4.871094 L 11.371094 0.214844 L 24.613281 8.003906 C 24.992188 8.226562 25.476562 8.0625 25.648438 7.65625 L 26.238281 6.230469 C 26.394531 5.851562 26.851562 5.695312 27.207031 5.90625 L 42.941406 15.164062 C 43.285156 15.363281 43.480469 15.746094 43.441406 16.144531 Z M 32.546875 26.191406 L 39.890625 44.796875 L 9.113281 26.6875 L 7.757812 25.890625 L 1.320312 6.550781 C 1.003906 5.605469 2.019531 4.773438 2.871094 5.277344 L 7.148438 7.789062 L 8.453125 8.558594 L 9.84375 9.378906 L 10.0625 9.503906 L 11.230469 10.191406 L 13.082031 11.28125 C 13.90625 11.765625 14.519531 12.554688 14.785156 13.480469 L 15.0625 14.4375 C 15.394531 15.574219 16.144531 16.542969 17.160156 17.144531 Z M 11.414062 21.347656 L 10.257812 17.773438 L 9.910156 16.691406 L 9.546875 16.476562 L 9.117188 16.226562 L 8.722656 15.992188 L 7.953125 15.542969 L 6.8125 14.871094 L 8.316406 19.527344 L 8.371094 19.558594 L 8.628906 19.710938 L 8.863281 19.847656 L 9.390625 20.160156 L 9.910156 20.464844 Z M 11.414062 21.347656 " fill-opacity="1" fill-rule="nonzero"/></g><path fill="#f4ece8" d="M 41.121094 20.164062 L 39.890625 44.796875 L 32.546875 26.191406 L 17.160156 17.144531 C 16.144531 16.542969 15.394531 15.574219 15.0625 14.4375 L 14.785156 13.480469 C 14.519531 12.554688 13.90625 11.765625 13.082031 11.28125 L 11.230469 10.191406 L 10.0625 9.503906 L 9.84375 9.378906 L 8.453125 8.558594 L 7.148438 7.789062 L 7.035156 6.695312 L 8.414062 7.507812 L 8.335938 5.382812 L 9.972656 6.34375 L 10.050781 4.484375 L 10.714844 4.871094 L 11.828125 5.527344 L 12.136719 3.121094 Z M 9.113281 26.6875 L 9.113281 26.695312 L 39.890625 44.796875 Z M 9.910156 20.464844 L 11.414062 21.347656 L 10.257812 17.773438 L 9.910156 16.691406 L 9.546875 16.476562 L 9.117188 16.226562 L 8.722656 15.992188 L 7.953125 15.542969 L 6.8125 14.871094 L 8.316406 19.527344 L 8.371094 19.558594 L 8.628906 19.710938 L 8.863281 19.847656 L 9.390625 20.160156 Z M 9.910156 20.464844 " fill-opacity="1" fill-rule="nonzero"/><path fill="#8d5d39" d="M 42.519531 19.46875 L 40.917969 34.136719 C 40.90625 34.242188 40.816406 34.320312 40.714844 34.320312 C 40.710938 34.320312 40.707031 34.320312 40.699219 34.316406 C 40.59375 34.308594 40.507812 34.21875 40.511719 34.109375 L 40.914062 20.28125 L 13.003906 3.867188 C 12.914062 3.8125 12.878906 3.695312 12.925781 3.597656 L 13.285156 2.882812 C 13.308594 2.832031 13.355469 2.796875 13.40625 2.78125 C 13.460938 2.765625 13.519531 2.769531 13.566406 2.796875 L 42.417969 19.269531 C 42.488281 19.308594 42.527344 19.386719 42.519531 19.46875 Z M 36.214844 34.933594 C 36.1875 34.859375 36.113281 34.808594 36.03125 34.804688 C 35.949219 34.800781 35.875 34.851562 35.839844 34.925781 C 35.28125 36.1875 34.492188 36.984375 33.425781 37.359375 C 30.511719 38.390625 25.941406 36.003906 21.523438 33.695312 L 20.667969 33.25 C 20.570312 33.199219 20.449219 33.234375 20.398438 33.332031 C 20.34375 33.429688 20.378906 33.554688 20.472656 33.609375 L 39.789062 44.972656 C 39.820312 44.992188 39.855469 45 39.890625 45 C 39.9375 45 39.984375 44.984375 40.023438 44.949219 C 40.089844 44.894531 40.113281 44.800781 40.078125 44.71875 Z M 36.214844 34.933594 " fill-opacity="0.4" fill-rule="nonzero"/><g clip-path="url(#92737ec07d)"><path fill="#8d5d39" d="M 43.046875 14.984375 L 27.308594 5.726562 C 27.089844 5.597656 26.824219 5.570312 26.585938 5.652344 C 26.34375 5.734375 26.148438 5.917969 26.050781 6.152344 L 25.460938 7.574219 C 25.402344 7.714844 25.285156 7.824219 25.144531 7.871094 C 25 7.917969 24.84375 7.902344 24.714844 7.828125 L 11.472656 0.0351562 C 11.414062 0.00390625 11.34375 0 11.28125 0.03125 C 11.222656 0.0585938 11.179688 0.117188 11.167969 0.183594 L 10.554688 4.542969 L 10.15625 4.304688 C 10.09375 4.269531 10.015625 4.269531 9.953125 4.304688 C 9.890625 4.335938 9.851562 4.402344 9.847656 4.472656 L 9.785156 5.996094 L 8.4375 5.203125 C 8.375 5.167969 8.296875 5.167969 8.230469 5.207031 C 8.167969 5.246094 8.128906 5.316406 8.132812 5.390625 L 8.195312 7.144531 L 7.136719 6.519531 C 7.070312 6.480469 6.988281 6.484375 6.921875 6.523438 C 6.859375 6.566406 6.824219 6.640625 6.832031 6.71875 L 6.902344 7.410156 L 2.976562 5.097656 C 2.511719 4.828125 1.945312 4.871094 1.53125 5.210938 C 1.113281 5.554688 0.957031 6.105469 1.125 6.617188 L 7.566406 25.957031 C 7.566406 25.960938 7.570312 25.964844 7.574219 25.972656 C 7.574219 25.976562 7.578125 25.984375 7.582031 25.988281 C 7.601562 26.019531 7.625 26.050781 7.65625 26.066406 L 8.988281 26.851562 C 8.996094 26.859375 9 26.867188 9.011719 26.875 L 39.789062 44.972656 C 39.820312 44.992188 39.855469 45 39.890625 45 C 39.917969 45 39.945312 44.992188 39.972656 44.980469 C 39.976562 44.980469 39.980469 44.980469 39.980469 44.980469 C 39.984375 44.976562 39.984375 44.976562 39.984375 44.976562 C 39.984375 44.976562 39.988281 44.976562 39.988281 44.976562 C 39.988281 44.972656 39.988281 44.972656 39.992188 44.972656 C 39.992188 44.972656 39.996094 44.972656 39.996094 44.972656 C 39.996094 44.96875 39.996094 44.96875 40 44.96875 C 40 44.96875 40 44.96875 40.003906 44.964844 C 40.007812 44.964844 40.007812 44.964844 40.007812 44.960938 C 40.011719 44.960938 40.011719 44.957031 40.011719 44.957031 C 40.015625 44.953125 40.019531 44.953125 40.023438 44.949219 C 40.027344 44.945312 40.03125 44.9375 40.035156 44.933594 C 40.042969 44.925781 40.050781 44.917969 40.058594 44.910156 C 40.0625 44.90625 40.0625 44.902344 40.066406 44.898438 C 40.066406 44.894531 40.070312 44.890625 40.070312 44.886719 C 40.074219 44.882812 40.074219 44.878906 40.074219 44.875 C 40.078125 44.871094 40.078125 44.863281 40.082031 44.855469 C 40.082031 44.847656 40.085938 44.839844 40.089844 44.832031 C 40.089844 44.828125 40.09375 44.824219 40.09375 44.820312 L 43.640625 16.164062 C 43.6875 15.6875 43.453125 15.226562 43.046875 14.984375 Z M 7.925781 25.753906 L 7.675781 25.003906 L 7.613281 24.8125 L 7.695312 24.863281 L 7.886719 24.976562 L 8.074219 25.085938 L 8.785156 25.503906 L 8.867188 25.550781 L 8.957031 25.605469 L 9 25.632812 L 9.042969 25.652344 L 9.074219 25.675781 L 9.152344 25.71875 L 9.21875 25.757812 L 9.230469 25.765625 L 9.28125 25.796875 L 9.351562 25.835938 L 9.421875 25.878906 L 39.097656 43.335938 L 39.484375 44.320312 L 27.820312 37.457031 L 9.332031 26.582031 L 9.320312 26.574219 L 9.3125 26.566406 L 9.304688 26.5625 L 9.140625 26.46875 L 9.101562 26.445312 L 9.085938 26.433594 L 8.949219 26.355469 L 8.925781 26.339844 L 8.894531 26.324219 L 8.867188 26.308594 Z M 1.785156 5.53125 C 2.011719 5.34375 2.386719 5.226562 2.769531 5.453125 L 6.957031 7.914062 L 7.171875 8.042969 L 7.390625 8.171875 L 8.253906 8.675781 L 8.460938 8.800781 L 8.667969 8.921875 L 9.636719 9.492188 L 9.835938 9.609375 L 9.84375 9.613281 L 10.03125 9.726562 L 10.035156 9.726562 L 10.222656 9.835938 L 11.011719 10.300781 L 11.203125 10.414062 L 11.390625 10.523438 L 12.980469 11.457031 C 13.761719 11.921875 14.335938 12.660156 14.589844 13.539062 L 14.867188 14.492188 C 15.214844 15.6875 15.992188 16.691406 17.058594 17.320312 L 32.382812 26.335938 L 38.300781 41.320312 L 9.605469 24.4375 L 9.417969 24.328125 L 9.414062 24.328125 L 9.226562 24.214844 L 9.21875 24.210938 L 9.046875 24.109375 L 9.019531 24.09375 L 9.015625 24.09375 L 8.832031 23.980469 L 8.808594 23.96875 L 8.613281 23.855469 L 8.277344 23.65625 L 8.085938 23.546875 L 7.898438 23.433594 L 6.972656 22.890625 L 1.511719 6.488281 C 1.371094 6.0625 1.5625 5.714844 1.785156 5.53125 Z M 7.277344 7.078125 L 8.214844 7.628906 L 8.628906 7.871094 L 9.679688 8.488281 L 9.878906 8.605469 L 9.976562 8.664062 L 10.078125 8.722656 L 10.164062 8.777344 L 10.355469 8.886719 L 11.132812 9.34375 L 11.515625 9.570312 L 35.835938 23.871094 L 39.3125 42.777344 L 32.734375 26.117188 C 32.71875 26.074219 32.6875 26.039062 32.648438 26.015625 L 17.265625 16.964844 C 16.289062 16.390625 15.574219 15.472656 15.257812 14.378906 L 14.980469 13.421875 C 14.695312 12.441406 14.058594 11.617188 13.183594 11.105469 L 11.449219 10.082031 L 11.257812 9.972656 L 11.066406 9.859375 L 10.285156 9.398438 L 10.09375 9.285156 L 10.054688 9.261719 L 9.90625 9.175781 L 9.855469 9.144531 L 9.65625 9.027344 L 8.652344 8.4375 L 8.441406 8.316406 L 8.234375 8.191406 L 7.339844 7.664062 Z M 8.550781 5.746094 L 9.765625 6.460938 L 9.964844 6.578125 L 10.164062 6.691406 L 10.246094 6.742188 L 10.4375 6.855469 L 10.625 6.964844 L 11.382812 7.410156 L 11.574219 7.523438 L 11.761719 7.632812 L 37.128906 22.550781 L 39.003906 38.839844 L 36.214844 23.703125 C 36.207031 23.644531 36.171875 23.59375 36.121094 23.5625 L 11.570312 9.128906 L 11.382812 9.015625 L 11.191406 8.902344 L 10.417969 8.449219 L 10.226562 8.335938 L 10.097656 8.261719 L 10.039062 8.226562 L 9.898438 8.144531 L 9.699219 8.027344 L 8.613281 7.386719 Z M 10.242188 4.832031 L 10.496094 4.980469 L 10.683594 5.09375 L 10.875 5.203125 L 11.609375 5.636719 L 11.800781 5.75 L 11.992188 5.859375 L 38.835938 21.648438 L 39.496094 39.582031 L 37.519531 22.402344 C 37.515625 22.339844 37.476562 22.28125 37.421875 22.25 L 11.820312 7.195312 L 11.4375 6.96875 L 10.6875 6.527344 L 10.496094 6.417969 L 10.308594 6.304688 L 10.183594 6.230469 Z M 39.921875 40.101562 L 39.238281 21.519531 C 39.238281 21.449219 39.199219 21.386719 39.140625 21.351562 L 12.046875 5.417969 L 12.300781 3.453125 L 40.910156 20.277344 Z M 7.835938 23.871094 L 8.027344 23.984375 L 8.214844 24.09375 L 8.664062 24.359375 L 8.828125 24.457031 L 8.882812 24.488281 L 9 24.554688 L 9.035156 24.578125 L 9.167969 24.65625 L 9.199219 24.671875 L 9.242188 24.699219 L 9.359375 24.769531 L 9.394531 24.789062 L 9.550781 24.878906 L 38.542969 41.9375 L 38.851562 42.71875 L 9.480469 25.4375 L 9.371094 25.375 L 9.289062 25.324219 L 9.265625 25.3125 L 9.171875 25.257812 L 9.167969 25.253906 L 9.097656 25.214844 L 9.058594 25.1875 L 8.949219 25.125 L 8.851562 25.066406 L 8.730469 24.996094 L 8.136719 24.648438 L 7.949219 24.535156 L 7.757812 24.425781 L 7.417969 24.222656 L 7.167969 23.480469 Z M 41.429688 30.714844 C 41.136719 32.570312 40.839844 33.027344 40.683594 33.132812 C 40.683594 33.136719 40.679688 33.136719 40.675781 33.136719 L 41.324219 20.175781 C 41.328125 20.097656 41.289062 20.027344 41.222656 19.988281 L 12.238281 2.945312 C 12.179688 2.910156 12.109375 2.90625 12.046875 2.9375 C 11.988281 2.96875 11.945312 3.027344 11.9375 3.09375 L 11.667969 5.195312 L 10.933594 4.765625 L 11.53125 0.542969 L 24.511719 8.179688 C 24.742188 8.316406 25.019531 8.347656 25.273438 8.261719 C 25.527344 8.175781 25.730469 7.984375 25.835938 7.734375 L 26.425781 6.3125 C 26.476562 6.183594 26.582031 6.085938 26.714844 6.042969 C 26.84375 5.996094 26.984375 6.011719 27.105469 6.082031 L 42.839844 15.339844 C 43.113281 15.5 43.269531 15.808594 43.238281 16.121094 Z M 8.121094 19.589844 C 8.132812 19.625 8.152344 19.648438 8.179688 19.671875 C 8.1875 19.683594 8.199219 19.695312 8.214844 19.703125 L 8.398438 19.8125 L 8.40625 19.816406 L 8.597656 19.929688 L 8.613281 19.941406 L 8.664062 19.96875 L 8.785156 20.039062 L 8.871094 20.089844 L 9.078125 20.214844 L 9.179688 20.273438 L 9.578125 20.507812 L 9.691406 20.574219 L 9.882812 20.6875 L 10.074219 20.796875 L 11.3125 21.527344 C 11.34375 21.542969 11.378906 21.554688 11.414062 21.554688 C 11.457031 21.554688 11.503906 21.539062 11.539062 21.507812 C 11.605469 21.453125 11.632812 21.367188 11.605469 21.285156 L 10.464844 17.753906 L 10.316406 17.296875 L 10.171875 16.84375 L 10.101562 16.628906 C 10.085938 16.582031 10.054688 16.539062 10.011719 16.515625 L 9.753906 16.363281 L 9.355469 16.128906 L 9.335938 16.117188 L 9.148438 16.007812 L 8.957031 15.894531 L 8.921875 15.875 L 8.714844 15.75 L 8.507812 15.628906 L 8.144531 15.417969 L 7.707031 15.160156 L 6.914062 14.691406 C 6.839844 14.648438 6.75 14.65625 6.683594 14.710938 C 6.617188 14.765625 6.59375 14.851562 6.617188 14.933594 Z M 8.898438 16.335938 L 8.9375 16.359375 L 9.085938 16.445312 L 9.277344 16.558594 L 9.335938 16.59375 L 9.535156 16.710938 L 9.734375 16.824219 L 9.738281 16.828125 L 10.050781 17.792969 L 10.195312 18.246094 L 10.34375 18.699219 L 11.054688 20.902344 L 10.128906 20.359375 L 9.941406 20.246094 L 9.75 20.132812 L 9.597656 20.042969 L 9.199219 19.808594 L 9.0625 19.730469 L 8.855469 19.605469 L 8.847656 19.601562 L 8.65625 19.492188 L 8.644531 19.484375 L 8.5625 19.433594 L 8.484375 19.390625 L 8.472656 19.351562 L 8.289062 18.785156 L 7.988281 17.851562 L 7.171875 15.316406 L 7.761719 15.664062 L 7.980469 15.792969 L 8.195312 15.921875 L 8.523438 16.113281 L 8.730469 16.238281 Z M 8.898438 16.335938 " fill-opacity="1" fill-rule="nonzero"/></g></svg>