<svg xmlns="http://www.w3.org/2000/svg" xmlns:xlink="http://www.w3.org/1999/xlink" width="60" zoomAndPan="magnify" viewBox="0 0 45 44.999999" height="60" preserveAspectRatio="xMidYMid meet" version="1.0"><defs><clipPath id="c052b3e1b4"><path d="M 5.683594 24.078125 L 39.429688 24.078125 L 39.429688 45 L 5.683594 45 Z M 5.683594 24.078125 " clip-rule="nonzero"/></clipPath><clipPath id="3157339423"><path d="M 16.453125 24.078125 L 28.6875 24.078125 L 28.6875 45 L 16.453125 45 Z M 16.453125 24.078125 " clip-rule="nonzero"/></clipPath><clipPath id="754afbee36"><path d="M 17.796875 28.222656 L 27.21875 28.222656 L 27.21875 45 L 17.796875 45 Z M 17.796875 28.222656 " clip-rule="nonzero"/></clipPath><clipPath id="d7b013958d"><path d="M 19.875 31.515625 L 25.261719 31.515625 L 25.261719 45 L 19.875 45 Z M 19.875 31.515625 " clip-rule="nonzero"/></clipPath><clipPath id="37834459dd"><path d="M 14.003906 24.078125 L 21.957031 24.078125 L 21.957031 45 L 14.003906 45 Z M 14.003906 24.078125 " clip-rule="nonzero"/></clipPath><clipPath id="a7d96836e2"><path d="M 23.179688 24.078125 L 31.132812 24.078125 L 31.132812 45 L 23.179688 45 Z M 23.179688 24.078125 " clip-rule="nonzero"/></clipPath></defs><g clip-path="url(#c052b3e1b4)"><path fill="#354458" d="M 39.429688 44.417969 C 39.429688 44.742188 39.167969 45.003906 38.84375 45.003906 L 6.273438 45.003906 C 5.945312 45.003906 5.683594 44.742188 5.683594 44.417969 C 5.695312 42.097656 5.8125 35.652344 6.953125 31.546875 C 7.261719 30.429688 7.621094 29.582031 8.082031 28.808594 C 8.339844 28.371094 9.46875 26.539062 11.675781 25.285156 C 13.023438 24.519531 14.304688 24.234375 15.285156 24.144531 C 15.773438 24.097656 16.183594 24.097656 16.492188 24.109375 L 16.539062 24.113281 L 28.578125 24.113281 C 28.890625 24.097656 29.328125 24.09375 29.84375 24.144531 C 30.824219 24.238281 32.097656 24.523438 33.4375 25.285156 C 35.644531 26.539062 36.777344 28.371094 37.035156 28.808594 C 37.492188 29.582031 37.851562 30.429688 38.160156 31.546875 C 39.300781 35.652344 39.421875 42.097656 39.429688 44.417969 " fill-opacity="1" fill-rule="evenodd"/></g><g clip-path="url(#3157339423)"><path fill="#ffffff" d="M 28.578125 24.113281 L 24.960938 45.003906 L 20.179688 45.003906 L 16.539062 24.113281 L 28.578125 24.113281 " fill-opacity="1" fill-rule="evenodd"/></g><g clip-path="url(#754afbee36)"><path fill="#e7e7e7" d="M 27.183594 30.910156 L 27.183594 41.875 L 25.179688 45.003906 L 19.9375 45.003906 L 18.011719 41.996094 L 17.867188 30.980469 L 20.625 29.417969 L 22.585938 28.300781 L 24.546875 29.417969 L 27.183594 30.910156 " fill-opacity="1" fill-rule="evenodd"/></g><path fill="#d35f4c" d="M 22.585938 28.300781 L 20.625 29.417969 L 20.621094 29.414062 L 21.542969 31.628906 L 23.628906 31.628906 L 24.546875 29.414062 L 24.546875 29.417969 L 22.585938 28.300781 " fill-opacity="1" fill-rule="evenodd"/><g clip-path="url(#d7b013958d)"><path fill="#e66753" d="M 21.542969 31.628906 L 19.972656 45.003906 L 25.167969 45.003906 L 23.628906 31.628906 L 21.542969 31.628906 " fill-opacity="1" fill-rule="evenodd"/></g><g clip-path="url(#37834459dd)"><path fill="#4c637c" d="M 21.941406 45.003906 L 19.9375 45.003906 L 19.871094 44.902344 L 18.257812 42.378906 L 14.78125 36.941406 L 16.347656 33.570312 L 14.082031 30.246094 L 15.285156 24.144531 C 15.773438 24.097656 16.183594 24.097656 16.492188 24.109375 L 16.539062 24.113281 L 18.257812 30.757812 L 20.539062 39.585938 L 21.941406 45.003906 " fill-opacity="1" fill-rule="evenodd"/></g><g clip-path="url(#a7d96836e2)"><path fill="#4c637c" d="M 28.769531 33.570312 L 30.335938 36.941406 L 26.644531 42.714844 L 25.292969 44.828125 L 25.179688 45.003906 L 23.199219 45.003906 L 24.617188 39.488281 L 26.644531 31.621094 L 28.578125 24.113281 C 28.890625 24.097656 29.328125 24.09375 29.84375 24.144531 L 31.035156 30.246094 L 28.769531 33.570312 " fill-opacity="1" fill-rule="evenodd"/></g><path fill="#8f4c2e" d="M 31.304688 10.980469 C 30.238281 10.386719 29.121094 9.324219 29.121094 9.324219 C 21.675781 12.484375 16.070312 9.183594 16.070312 9.183594 C 14.898438 10.347656 13.832031 10.980469 13.832031 10.980469 C 13.441406 10.167969 13.375 9.242188 13.3125 8.34375 C 13.257812 7.570312 13.207031 6.765625 13.410156 6.007812 C 13.621094 5.203125 14.25 4.394531 14.800781 3.789062 C 14.921875 3.65625 15.046875 3.527344 15.175781 3.402344 C 17.011719 1.632812 20.039062 0.707031 21.578125 0.386719 C 22.824219 0.128906 24.140625 0 25.429688 0.0898438 C 26.148438 0.136719 26.898438 0.230469 27.597656 0.40625 C 28.171875 0.550781 28.738281 0.824219 29.082031 1.304688 C 29.453125 1.820312 29.542969 2.472656 29.988281 2.945312 C 30.472656 3.460938 31.132812 3.769531 31.632812 4.273438 C 32.292969 4.949219 32.953125 6.007812 33.050781 6.960938 C 33.136719 7.820312 32.761719 8.628906 32.324219 9.34375 C 32.25 9.464844 31.480469 10.835938 31.304688 10.980469 " fill-opacity="1" fill-rule="evenodd"/><path fill="#ebbca7" d="M 17.054688 21.410156 L 16.539062 24.113281 L 22.585938 28.300781 L 28.578125 24.113281 L 28.066406 21.425781 L 17.054688 21.410156 " fill-opacity="1" fill-rule="evenodd"/><path fill="#f9c7b2" d="M 31.304688 10.980469 L 31.304688 14.660156 C 31.304688 19.46875 27.394531 23.367188 22.570312 23.367188 C 17.746094 23.367188 13.832031 19.46875 13.832031 14.660156 L 13.832031 10.980469 C 13.832031 10.980469 14.898438 10.347656 16.070312 9.183594 C 16.070312 9.183594 21.675781 12.484375 29.121094 9.324219 C 29.121094 9.324219 30.238281 10.386719 31.304688 10.980469 " fill-opacity="1" fill-rule="evenodd"/></svg>